<?xml version="1.0" encoding="iso-8859-1"?>
<!-- Uploaded to: SVG Repo, www.svgrepo.com, Generator: SVG Repo Mixer Tools -->
<svg fill="#000000" height="800px" width="800px" version="1.1" id="Layer_1" xmlns="http://www.w3.org/2000/svg" xmlns:xlink="http://www.w3.org/1999/xlink" 
	 viewBox="0 0 512.162 512.162" xml:space="preserve">
<g>
	<g>
		<path d="M384.34,85.932l-21.124-0.201l38.1-51.749C411.688,19.895,401.63,0,384.137,0H277.47c-6.89,0-13.355,3.327-17.36,8.934
			L153.444,158.267c-10.086,14.12,0.008,33.733,17.36,33.733h24.138l-63.222,94.833C122.268,301.01,132.431,320,149.47,320h27.912
			l-68.883,162.333c-9.383,22.112,19.266,40.457,35.424,22.684L357.256,270.35c12.458-13.704,2.735-35.684-15.785-35.684h-22.448
			l82.451-114.97C411.542,105.656,401.617,86.096,384.34,85.932z M260.134,243.567c-10.123,14.116-0.034,33.766,17.336,33.766
			h15.775l-96.41,106.052L229.247,307c5.97-14.068-4.356-29.667-19.638-29.667h-20.277l63.222-94.833
			c9.451-14.177-0.712-33.167-17.75-33.167h-22.545l76.19-106.667h53.49l-37.808,51.352c-10.316,14.012-0.422,33.815,16.977,33.981
			l21.759,0.207L260.134,243.567z"/>
	</g>
</g>
</svg>